<svg width="28" height="28" viewBox="0 0 28 28" fill="none" xmlns="http://www.w3.org/2000/svg">
<path d="M25.3828 20.4267C25.9874 19.1727 26.2841 17.7925 26.2481 16.4008C26.2122 15.0091 25.8448 13.6461 25.1763 12.425C24.5078 11.2038 23.5576 10.1598 22.4046 9.37965C21.2516 8.59949 19.929 8.1057 18.5469 7.93931C18.087 6.87003 17.4183 5.90325 16.5801 5.09559C15.742 4.28793 14.751 3.65563 13.6654 3.23571C12.5798 2.81579 11.4213 2.6167 10.2578 2.65009C9.09429 2.68347 7.94913 2.94868 6.88939 3.43016C5.82964 3.91164 4.87662 4.59973 4.08612 5.45413C3.29562 6.30853 2.68354 7.31206 2.28571 8.40596C1.88789 9.49986 1.71232 10.6621 1.76929 11.8247C1.82626 12.9873 2.11462 14.1269 2.61749 15.1767L1.82234 17.8793C1.73343 18.181 1.72749 18.5011 1.80513 18.8059C1.88277 19.1107 2.04113 19.389 2.26354 19.6114C2.48595 19.8338 2.7642 19.9922 3.069 20.0698C3.37381 20.1474 3.69391 20.1415 3.99562 20.0526L6.69828 19.2574C7.56609 19.6744 8.4965 19.946 9.45234 20.0613C9.91672 21.1494 10.5969 22.132 11.4518 22.9497C12.3067 23.7675 13.3186 24.4034 14.4262 24.8189C15.5338 25.2345 16.7142 25.4212 17.896 25.3677C19.0778 25.3141 20.2365 25.0215 21.302 24.5074L24.0047 25.3026C24.3063 25.3914 24.6262 25.3973 24.9309 25.3197C25.2356 25.2421 25.5137 25.0839 25.7361 24.8616C25.9585 24.6393 26.1169 24.3613 26.1946 24.0566C26.2724 23.752 26.2666 23.4321 26.178 23.1304L25.3828 20.4267ZM23.6055 20.5874L24.5002 23.6248L21.4639 22.7312C21.2445 22.6676 21.009 22.6924 20.8077 22.8001C19.1964 23.6605 17.3128 23.8575 15.5583 23.3492C13.8039 22.8408 12.3174 21.6673 11.4156 20.0788C12.6137 19.9538 13.773 19.5825 14.8208 18.9883C15.8686 18.3941 16.7823 17.5897 17.5046 16.6257C18.2268 15.6617 18.7421 14.5588 19.018 13.3862C19.2939 12.2137 19.3246 10.9968 19.108 9.81181C20.1518 10.0579 21.1252 10.5405 21.9529 11.2224C22.7807 11.9044 23.4407 12.7674 23.8819 13.7449C24.3232 14.7223 24.534 15.7881 24.498 16.86C24.462 17.9319 24.1802 18.9811 23.6744 19.9268C23.5655 20.1294 23.5407 20.3667 23.6055 20.5874Z" fill="#01AED6"/>
</svg>
