<svg width="25" height="25" viewBox="0 0 25 25" fill="none" xmlns="http://www.w3.org/2000/svg">
<path d="M22.7129 10.3262C22.7129 16.8887 12.9826 22.2005 12.5682 22.4199C12.459 22.4787 12.3369 22.5094 12.2129 22.5094C12.0889 22.5094 11.9668 22.4787 11.8576 22.4199C11.4432 22.2005 1.71289 16.8887 1.71289 10.3262C1.71463 8.78513 2.32757 7.30771 3.41725 6.21803C4.50693 5.12835 5.98435 4.51541 7.52539 4.51367C9.46133 4.51367 11.1563 5.34617 12.2129 6.75336C13.2695 5.34617 14.9645 4.51367 16.9004 4.51367C18.4414 4.51541 19.9189 5.12835 21.0085 6.21803C22.0982 7.30771 22.7112 8.78513 22.7129 10.3262Z" fill="#01AED6"/>
</svg>
