<svg width="28" height="28" viewBox="0 0 28 28" fill="none" xmlns="http://www.w3.org/2000/svg">
<path d="M22.75 8.75H19.25V6.125C19.25 4.73261 18.6969 3.39726 17.7123 2.41269C16.7277 1.42812 15.3924 0.875 14 0.875C12.6076 0.875 11.2723 1.42812 10.2877 2.41269C9.30312 3.39726 8.75 4.73261 8.75 6.125V8.75H5.25C4.78587 8.75 4.34075 8.93437 4.01256 9.26256C3.68437 9.59075 3.5 10.0359 3.5 10.5V22.75C3.5 23.2141 3.68437 23.6592 4.01256 23.9874C4.34075 24.3156 4.78587 24.5 5.25 24.5H22.75C23.2141 24.5 23.6592 24.3156 23.9874 23.9874C24.3156 23.6592 24.5 23.2141 24.5 22.75V10.5C24.5 10.0359 24.3156 9.59075 23.9874 9.26256C23.6592 8.93437 23.2141 8.75 22.75 8.75ZM14.875 17.3502V20.125C14.875 20.3571 14.7828 20.5796 14.6187 20.7437C14.4546 20.9078 14.2321 21 14 21C13.7679 21 13.5454 20.9078 13.3813 20.7437C13.2172 20.5796 13.125 20.3571 13.125 20.125V17.3502C12.5412 17.1437 12.0491 16.7376 11.7358 16.2035C11.4225 15.6694 11.3081 15.0417 11.4128 14.4314C11.5175 13.8211 11.8346 13.2674 12.308 12.8683C12.7815 12.4692 13.3808 12.2503 14 12.2503C14.6192 12.2503 15.2185 12.4692 15.692 12.8683C16.1654 13.2674 16.4825 13.8211 16.5872 14.4314C16.6919 15.0417 16.5775 15.6694 16.2642 16.2035C15.9509 16.7376 15.4588 17.1437 14.875 17.3502ZM17.5 8.75H10.5V6.125C10.5 5.19674 10.8687 4.3065 11.5251 3.65013C12.1815 2.99375 13.0717 2.625 14 2.625C14.9283 2.625 15.8185 2.99375 16.4749 3.65013C17.1313 4.3065 17.5 5.19674 17.5 6.125V8.75Z" fill="#01AED6"/>
</svg>
