<svg width="1221" height="1236" viewBox="0 0 1221 1236" fill="none" xmlns="http://www.w3.org/2000/svg">
<rect width="1221" height="1236" fill="#01AED6"/>
<path d="M579.628 600.728C513.667 619.813 439.746 638.793 396.101 811.585C395.544 813.787 397.201 816 399.473 816H515.769C517.283 816 518.654 815.026 519.124 813.586L558.297 693.604C558.767 692.165 560.11 691.191 561.624 691.191H712.688C713.064 691.191 713.442 691.129 713.798 691.009C823.907 653.92 863.861 516.58 784.066 421.248C783.407 420.461 782.422 420 781.396 420H519.981C518.486 420 517.156 420.949 516.671 422.363L484.015 517.422C482.95 520.524 486.367 523.255 489.184 521.576C519.774 503.338 539.986 495.42 613.898 489.515C615.238 489.408 616.438 488.542 616.925 487.29L624.41 468.054C625.45 465.38 629.09 465.026 630.627 467.449L694.396 568.007C695.441 569.656 694.937 571.84 693.274 572.863L582.877 640.762C580.274 642.363 577.014 640.094 577.611 637.097L584.046 604.782C584.56 602.203 582.154 599.997 579.628 600.728Z" fill="white"/>
</svg>
