<svg width="26" height="26" viewBox="0 0 26 26" fill="none" xmlns="http://www.w3.org/2000/svg">
<g clip-path="url(#clip0_739_1222)">
<path d="M21.9376 12.1875C21.7131 12.188 21.4889 12.2067 21.2673 12.2434L20.6762 10.7057C21.09 10.6107 21.5131 10.5627 21.9376 10.5625C22.1531 10.5625 22.3598 10.4769 22.5122 10.3245C22.6645 10.1722 22.7501 9.96549 22.7501 9.75C22.7501 9.53451 22.6645 9.32785 22.5122 9.17548C22.3598 9.0231 22.1531 8.9375 21.9376 8.9375H19.9958L18.6338 5.39602C18.5749 5.24264 18.4708 5.11075 18.3354 5.01773C18.1999 4.92471 18.0395 4.87495 17.8751 4.875H14.6251C14.4097 4.875 14.203 4.9606 14.0506 5.11298C13.8982 5.26535 13.8126 5.47201 13.8126 5.6875C13.8126 5.90299 13.8982 6.10965 14.0506 6.26202C14.203 6.4144 14.4097 6.5 14.6251 6.5H17.3176L18.255 8.9375H15.4376C13.5587 8.9375 12.0353 9.37523 11.0329 10.203C10.797 10.3933 10.5126 10.5138 10.2118 10.5509C9.91099 10.5881 9.6058 10.5404 9.33069 10.4132C8.25616 9.92469 1.88718 7.35414 1.83538 7.33992C1.63297 7.28043 1.41536 7.302 1.22857 7.40006C1.04177 7.49813 0.900452 7.66501 0.83449 7.86541C0.768527 8.0658 0.783097 8.284 0.875119 8.47384C0.96714 8.66369 1.1294 8.81029 1.32757 8.88266C1.32757 8.88266 6.96429 11.1109 8.08452 12.2281C8.95481 13.0949 9.51918 14.2215 9.69226 15.4375H8.0439C7.84255 14.4511 7.28211 13.5746 6.47123 12.9779C5.66035 12.3812 4.65681 12.1069 3.65516 12.2081C2.65351 12.3093 1.72511 12.7788 1.04995 13.5256C0.374791 14.2724 0.000976562 15.2432 0.000976562 16.25C0.000976562 17.2568 0.374791 18.2276 1.04995 18.9744C1.72511 19.7212 2.65351 20.1907 3.65516 20.2919C4.65681 20.3931 5.66035 20.1188 6.47123 19.5221C7.28211 18.9254 7.84255 18.0489 8.0439 17.0625H13.3373C14.042 17.0641 14.728 16.8359 15.2914 16.4125C15.8548 15.9892 16.2648 15.3937 16.4594 14.7164C16.662 13.996 17.0049 13.3226 17.4683 12.7349C17.9317 12.1472 18.5066 11.6568 19.1599 11.2917L19.751 12.8284C18.9275 13.3554 18.3217 14.1619 18.0448 15.0996C17.768 16.0373 17.8386 17.0434 18.2437 17.9333C18.6488 18.8231 19.3613 19.537 20.2503 19.944C21.1394 20.3509 22.1453 20.4235 23.0836 20.1485C24.0219 19.8735 24.8295 19.2694 25.3583 18.4469C25.887 17.6245 26.1014 16.6389 25.9621 15.6712C25.8228 14.7034 25.3391 13.8183 24.5999 13.1784C23.8606 12.5385 22.9154 12.1867 21.9376 12.1875ZM4.06265 17.0625H6.35999C6.16833 17.6046 5.79119 18.0615 5.29523 18.3525C4.79927 18.6434 4.21642 18.7496 3.64971 18.6524C3.08299 18.5552 2.5689 18.2607 2.19828 17.8211C1.82767 17.3815 1.62439 16.825 1.62439 16.25C1.62439 15.675 1.82767 15.1185 2.19828 14.6789C2.5689 14.2393 3.08299 13.9448 3.64971 13.8476C4.21642 13.7504 4.79927 13.8566 5.29523 14.1475C5.79119 14.4385 6.16833 14.8954 6.35999 15.4375H4.06265C3.84716 15.4375 3.6405 15.5231 3.48812 15.6755C3.33575 15.8278 3.25015 16.0345 3.25015 16.25C3.25015 16.4655 3.33575 16.6722 3.48812 16.8245C3.6405 16.9769 3.84716 17.0625 4.06265 17.0625ZM21.9376 18.6875C21.4398 18.6869 20.954 18.5338 20.5457 18.2489C20.1374 17.9639 19.8262 17.5608 19.6538 17.0937C19.4815 16.6266 19.4564 16.1179 19.5818 15.6361C19.7072 15.1542 19.9771 14.7223 20.3553 14.3985L21.179 16.5415C21.2563 16.7427 21.4104 16.905 21.6073 16.9926C21.8042 17.0802 22.0279 17.086 22.2291 17.0087C22.4303 16.9314 22.5926 16.7773 22.6802 16.5804C22.7678 16.3834 22.7736 16.1597 22.6963 15.9585L21.8716 13.8125H21.9376C22.5841 13.8125 23.2041 14.0693 23.6612 14.5264C24.1183 14.9835 24.3751 15.6035 24.3751 16.25C24.3751 16.8965 24.1183 17.5165 23.6612 17.9736C23.2041 18.4307 22.5841 18.6875 21.9376 18.6875Z" fill="#01AED6"/>
</g>
<defs>
<clipPath id="clip0_739_1222">
<rect width="26" height="26" fill="white"/>
</clipPath>
</defs>
</svg>
