<?xml version="1.0" encoding="UTF-8"?>
<svg version="1.1" xmlns="http://www.w3.org/2000/svg" width="320" height="320">
<path d="M0 0 C8.816222 5.93673014 15.13345776 13.41273701 19.15625 23.26953125 C19.51332031 24.09710938 19.87039063 24.9246875 20.23828125 25.77734375 C21.56955753 30.8418586 21.52481521 35.74163232 21.53125 40.95703125 C21.55574219 41.98248047 21.58023438 43.00792969 21.60546875 44.06445312 C21.65213026 56.37531539 17.38365041 66.15716676 9.15625 75.26953125 C5.71088156 78.37618451 2.12972973 80.88328391 -1.84375 83.26953125 C-3.1121875 84.06230469 -3.1121875 84.06230469 -4.40625 84.87109375 C-14.98402243 90.37522533 -28.92901265 89.73842355 -40.421875 87.60546875 C-52.56852398 83.61442694 -62.85929675 74.40219798 -68.71875 63.14453125 C-74.2580472 51.63983707 -74.99054951 36.8868116 -71.28125 24.64453125 C-66.47154141 12.72919045 -57.67354889 2.71616433 -45.96875 -2.73046875 C-31.80507495 -8.67673466 -13.06437856 -7.9498897 0 0 Z M-46.84375 20.26953125 C-53.46909597 29.15390104 -54.87576438 37.34104215 -53.84375 48.26953125 C-51.7573133 56.63468675 -47.72662812 63.05165412 -40.84375 68.26953125 C-34.95571545 71.74165059 -28.59325198 72.81384593 -21.84375 72.26953125 C-13.388831 70.0872144 -6.92081698 67.03514746 -2.12109375 59.6015625 C3.33334733 49.6339905 4.37786737 41.05187926 1.22265625 30.12890625 C-1.92343444 21.69323451 -6.86620292 16.39103105 -14.84375 12.26953125 C-26.84961908 7.71558091 -38.40315492 10.81380892 -46.84375 20.26953125 Z " fill="#4C3494" transform="translate(282.84375,118.73046875)"/>
<path d="M0 0 C11.66724605 7.53290661 19.24251193 17.95745636 22.4140625 31.4921875 C23.8505404 46.04088643 22.47607308 59.16836711 13.453125 71.109375 C5.81296358 80.03753298 -3.82177267 87.69925059 -15.9609375 88.68505859 C-39.14734523 89.39669499 -39.14734523 89.39669499 -48.5859375 83.4921875 C-49.54628906 82.91082031 -50.50664063 82.32945312 -51.49609375 81.73046875 C-58.16872035 77.30300587 -62.6440145 72.43406748 -66.5859375 65.4921875 C-67.09253906 64.68007812 -67.59914063 63.86796875 -68.12109375 63.03125 C-73.814439 52.21547992 -73.33757401 37.37455182 -70.734375 25.66015625 C-69.59030987 22.69103484 -68.28871075 20.17685189 -66.5859375 17.4921875 C-66.00457031 16.533125 -65.42320313 15.5740625 -64.82421875 14.5859375 C-60.40166361 7.91173664 -55.5296178 3.42932581 -48.5859375 -0.5078125 C-47.76222656 -1.01441406 -46.93851563 -1.52101563 -46.08984375 -2.04296875 C-32.44333051 -9.15341614 -12.99900004 -7.57947737 0 0 Z M-48.05078125 22.421875 C-52.91685765 30.12296982 -54.31594846 39.21455605 -53.0859375 48.1796875 C-51.16884067 56.50328514 -46.93127255 63.52635176 -39.77734375 68.3046875 C-32.19359515 72.41424111 -25.01367646 73.32705559 -16.5859375 71.4921875 C-8.82241906 68.97244906 -2.93839611 63.50485036 0.7890625 56.3046875 C4.36440006 48.67211905 4.61834567 39.802641 2.765625 31.6328125 C-0.23520018 23.37413124 -5.83474166 16.69075191 -13.5859375 12.4921875 C-26.40996812 7.74254653 -39.75949032 11.49948108 -48.05078125 22.421875 Z " fill="#4C3494" transform="translate(87.5859375,118.5078125)"/>
<path d="M0 0 C5.39346988 -0.02464849 10.78690725 -0.04283531 16.18041992 -0.05493164 C18.01668875 -0.05997231 19.85295354 -0.06680477 21.68920898 -0.07543945 C24.32276401 -0.08751672 26.95626616 -0.09323081 29.58984375 -0.09765625 C30.41588608 -0.10281754 31.24192841 -0.10797882 32.09300232 -0.11329651 C34.06236368 -0.11349205 36.03161614 -0.06204152 38 0 C39 1 39 1 39.09765625 4.37890625 C39.09098369 5.77347077 39.07902532 7.16801743 39.0625 8.5625 C39.05798828 9.27341797 39.05347656 9.98433594 39.04882812 10.71679688 C39.03700864 12.47790013 39.01907263 14.23896036 39 16 C36.29120665 17.35439668 33.99066732 17.06501451 31 17 C32.74078527 21.15884361 34.482365 25.31735345 36.22460938 29.47558594 C36.81433383 30.88337717 37.40385957 32.29125167 37.99316406 33.69921875 C41.95008257 43.15260767 45.94700126 52.58735861 50 62 C54.42278611 52.56721807 58.36862067 42.95163584 62.3125 33.3125 C62.9640033 31.72453165 63.61569468 30.13664045 64.26757812 28.54882812 C65.84721865 24.70010347 67.42432104 20.85034813 69 17 C67.865625 17.020625 66.73125 17.04125 65.5625 17.0625 C62 17 62 17 61 16 C60.92674564 13.3013095 60.90777649 10.63497444 60.9375 7.9375 C60.958125 5.318125 60.97875 2.69875 61 0 C71.23 0 81.46 0 92 0 C93.48376813 10.38637694 89.87174697 17.73309677 85.625 27.0625 C81.54326477 36.17072178 77.56252551 45.3178979 73.640625 54.49609375 C73.16897919 55.59969742 72.69733337 56.70330109 72.21139526 57.84034729 C70.28021375 62.36167861 68.35041862 66.88359324 66.4241333 71.40701294 C65.05296427 74.6263572 63.67899849 77.84449606 62.3046875 81.0625 C61.8853595 82.04991684 61.46603149 83.03733368 61.03399658 84.05467224 C60.64878845 84.95573196 60.26358032 85.85679169 59.86669922 86.78515625 C59.52903534 87.57801025 59.19137146 88.37086426 58.84347534 89.18774414 C58 91 58 91 57 92 C52.17160012 92.55467494 48.143975 92.51802641 43.6875 90.5 C38.11674817 85.31790527 35.08491908 78.40832743 32.14453125 71.49609375 C31.80120758 70.70293259 31.45788391 69.90977142 31.10415649 69.09257507 C30.37616231 67.40870959 29.65097544 65.72362796 28.92843628 64.03741455 C27.80162784 61.41216999 26.66315398 58.79225881 25.52172852 56.17333984 C22.23006047 48.60491274 18.97823027 41.03169388 15.9453125 33.35546875 C15.51114014 32.28047119 15.07696777 31.20547363 14.62963867 30.09790039 C13.85726262 28.17178465 13.11081652 26.23498465 12.39575195 24.28686523 C11.43402707 21.91314398 10.62571591 19.97876631 9 18 C6.15572306 16.95858881 4.09208462 16.99361799 1 17 C0 16 0 16 -0.09765625 12.40234375 C-0.0909822 10.91403133 -0.07902183 9.42573568 -0.0625 7.9375 C-0.05798828 7.17888672 -0.05347656 6.42027344 -0.04882812 5.63867188 C-0.0370068 3.75908129 -0.01907078 1.87953101 0 0 Z " fill="#4C3494" transform="translate(113,115)"/>
</svg>
