<svg width="23" height="23" viewBox="0 0 23 23" fill="none" xmlns="http://www.w3.org/2000/svg">
<path d="M20.4233 6.59162L16.4082 2.5774C16.2747 2.44388 16.1162 2.33797 15.9418 2.2657C15.7673 2.19344 15.5804 2.15625 15.3916 2.15625C15.2028 2.15625 15.0158 2.19344 14.8414 2.2657C14.667 2.33797 14.5085 2.44388 14.375 2.5774L3.29637 13.656C3.16231 13.789 3.05602 13.9474 2.98368 14.1218C2.91134 14.2962 2.8744 14.4833 2.87501 14.6722V18.6873C2.87501 19.0685 3.02646 19.4342 3.29604 19.7038C3.56562 19.9733 3.93126 20.1248 4.31251 20.1248H19.4063C19.5969 20.1248 19.7797 20.0491 19.9145 19.9143C20.0493 19.7795 20.125 19.5967 20.125 19.406C20.125 19.2154 20.0493 19.0326 19.9145 18.8978C19.7797 18.763 19.5969 18.6873 19.4063 18.6873H10.3608L20.4233 8.62478C20.5568 8.49129 20.6627 8.33281 20.735 8.15838C20.8072 7.98396 20.8444 7.797 20.8444 7.6082C20.8444 7.4194 20.8072 7.23244 20.735 7.05802C20.6627 6.88359 20.5568 6.72511 20.4233 6.59162ZM17.25 9.7649L13.2358 5.74978L15.392 3.59353L19.4063 7.60865L17.25 9.7649Z" fill="#01AED6"/>
</svg>
