<svg width="94" height="94" viewBox="0 0 94 94" fill="none" xmlns="http://www.w3.org/2000/svg">
<g filter="url(#filter0_d_681_1221)">
<rect x="16" y="23" width="62" height="62" rx="15" fill="white"/>
<rect x="21" y="28" width="52" height="52" rx="10" fill="#4B4848"/>
<g filter="url(#filter1_d_681_1221)">
<path fill-rule="evenodd" clip-rule="evenodd" d="M35.0192 38C33.9532 38 32.9309 38.4235 32.1772 39.1772C31.4235 39.9309 31 40.9532 31 42.0192V45.3882C31 45.6211 31.0459 45.8517 31.135 46.0668C31.2241 46.2819 31.3547 46.4774 31.5194 46.6421C31.684 46.8067 31.8795 46.9373 32.0946 47.0265C32.3097 47.1156 32.5403 47.1614 32.7732 47.1614C33.006 47.1614 33.2366 47.1156 33.4517 47.0265C33.6669 46.9373 33.8624 46.8067 34.027 46.6421C34.1917 46.4774 34.3223 46.2819 34.4114 46.0668C34.5005 45.8517 34.5464 45.6211 34.5464 45.3882V42.0192C34.5464 41.8938 34.5962 41.7735 34.6849 41.6849C34.7735 41.5962 34.8938 41.5464 35.0192 41.5464H38.3883C38.6211 41.5464 38.8517 41.5005 39.0668 41.4114C39.2819 41.3223 39.4774 41.1917 39.6421 41.027C39.8067 40.8624 39.9373 40.6669 40.0265 40.4517C40.1156 40.2366 40.1614 40.006 40.1614 39.7732C40.1614 39.5403 40.1156 39.3097 40.0265 39.0946C39.9373 38.8795 39.8067 38.684 39.6421 38.5194C39.4774 38.3547 39.2819 38.2241 39.0668 38.135C38.8517 38.0459 38.6211 38 38.3883 38H35.0192ZM40.2678 44.3125C38.6365 44.3125 37.3125 45.6365 37.3125 47.2678V52.1689C37.3125 53.8002 38.6365 55.1242 40.2678 55.1242H45.1689C46.8002 55.1242 48.1242 53.8002 48.1242 52.1689V47.2678C48.1242 45.6365 46.8002 44.3125 45.1689 44.3125H40.2678ZM41.8589 51.5778C41.3066 51.5778 40.8589 51.1301 40.8589 50.5778V48.8589C40.8589 48.3066 41.3066 47.8589 41.8589 47.8589H43.5778C44.1301 47.8589 44.5778 48.3066 44.5778 48.8589V50.5778C44.5778 51.1301 44.1301 51.5778 43.5778 51.5778H41.8589ZM54.5786 39.7732C54.5786 39.3029 54.7654 38.8519 55.0979 38.5194C55.4305 38.1868 55.8815 38 56.3517 38H59.7208C60.7868 38 61.8091 38.4235 62.5628 39.1772C63.3166 39.9309 63.74 40.9532 63.74 42.0192V45.3882C63.74 45.8585 63.5532 46.3095 63.2206 46.6421C62.8881 46.9746 62.4371 47.1614 61.9668 47.1614C61.4965 47.1614 61.0455 46.9746 60.713 46.6421C60.3805 46.3095 60.1936 45.8585 60.1936 45.3882V42.0192C60.1936 41.8938 60.1438 41.7735 60.0551 41.6849C59.9665 41.5962 59.8462 41.5464 59.7208 41.5464H56.3517C55.8815 41.5464 55.4305 41.3595 55.0979 41.027C54.7654 40.6945 54.5786 40.2435 54.5786 39.7732ZM34.5464 63.3541C34.5464 62.8838 34.3595 62.4328 34.027 62.1003C33.6945 61.7677 33.2435 61.5809 32.7732 61.5809C32.3029 61.5809 31.8519 61.7677 31.5194 62.1003C31.1868 62.4328 31 62.8838 31 63.3541V66.7232C31 67.7891 31.4235 68.8114 32.1772 69.5652C32.9309 70.3189 33.9532 70.7424 35.0192 70.7424H38.3883C38.8585 70.7424 39.3095 70.5555 39.6421 70.223C39.9746 69.8905 40.1614 69.4395 40.1614 68.9692C40.1614 68.4989 39.9746 68.0479 39.6421 67.7153C39.3095 67.3828 38.8585 67.196 38.3883 67.196H35.0192C34.8938 67.196 34.7735 67.1462 34.6849 67.0575C34.5962 66.9688 34.5464 66.8486 34.5464 66.7232V63.3541ZM61.9668 61.5809C62.4371 61.5809 62.8881 61.7677 63.2206 62.1003C63.5532 62.4328 63.74 62.8838 63.74 63.3541V66.7232C63.74 67.7891 63.3166 68.8114 62.5628 69.5652C61.8091 70.3189 60.7868 70.7424 59.7208 70.7424H56.3517C55.8815 70.7424 55.4305 70.5555 55.0979 70.223C54.7654 69.8905 54.5786 69.4395 54.5786 68.9692C54.5786 68.4989 54.7654 68.0479 55.0979 67.7153C55.4305 67.3828 55.8815 67.196 56.3517 67.196H59.7208C59.8462 67.196 59.9665 67.1462 60.0551 67.0575C60.1438 66.9688 60.1936 66.8486 60.1936 66.7232V63.3541C60.1936 62.8838 60.3805 62.4328 60.713 62.1003C61.0455 61.7677 61.4965 61.5809 61.9668 61.5809ZM40.8589 59.5477C40.8589 59.0774 40.6721 58.6264 40.3395 58.2939C40.007 57.9613 39.556 57.7745 39.0857 57.7745C38.6154 57.7745 38.1644 57.9613 37.8319 58.2939C37.4993 58.6264 37.3125 59.0774 37.3125 59.5477V62.6543C37.3125 63.6331 38.1069 64.4275 39.0857 64.4275H42.1923C42.6626 64.4275 43.1136 64.2407 43.4461 63.9081C43.7787 63.5756 43.9655 63.1246 43.9655 62.6543C43.9655 62.184 43.7787 61.733 43.4461 61.4005C43.1136 61.0679 42.6626 60.8811 42.1923 60.8811H41.8589C41.3066 60.8811 40.8589 60.4334 40.8589 59.8811V59.5477ZM44.3107 59.5477C44.3107 59.0774 44.4975 58.6264 44.83 58.2939C45.1626 57.9613 45.6136 57.7745 46.0839 57.7745H47.37C47.8403 57.7745 48.2913 57.9613 48.6238 58.2939C48.9564 58.6264 49.1432 59.0774 49.1432 59.5477V62.6543C49.1432 63.1246 48.9564 63.5756 48.6238 63.9081C48.2913 64.2407 47.8403 64.4275 47.37 64.4275C46.8997 64.4275 46.4487 64.2407 46.1162 63.9081C45.7836 63.5756 45.5968 63.1246 45.5968 62.6543V62.0066C45.5968 61.5601 45.277 61.1882 44.9366 60.8993C44.8379 60.8156 44.7481 60.7208 44.6691 60.6162C44.4371 60.3092 44.3113 59.9349 44.3107 59.55V59.5477ZM54.3209 46.0857C54.3209 45.6154 54.1341 45.1644 53.8015 44.8319C53.469 44.4993 53.018 44.3125 52.5477 44.3125C52.0774 44.3125 51.6264 44.4993 51.2939 44.8319C50.9613 45.1644 50.7745 45.6154 50.7745 46.0857V49.1923C50.7745 50.1711 51.5689 50.9655 52.5477 50.9655H55.6543C56.1246 50.9655 56.5756 50.7787 56.9081 50.4461C57.2407 50.1136 57.4275 49.6626 57.4275 49.1923C57.4275 48.722 57.2407 48.271 56.9081 47.9385C56.5756 47.6059 56.1246 47.4191 55.6543 47.4191H55.3209C54.7686 47.4191 54.3209 46.9714 54.3209 46.4191V46.0857ZM50.7745 54.37C50.7745 53.8997 50.9613 53.4487 51.2939 53.1162C51.6264 52.7836 52.0774 52.5968 52.5477 52.5968H55.6543C56.1246 52.5968 56.5756 52.7836 56.9081 53.1162C57.2407 53.4487 57.4275 53.8997 57.4275 54.37V55.8807C57.4285 56.329 57.2598 56.761 56.9552 57.0898C56.6507 57.4186 56.2328 57.6199 55.7859 57.6532C55.3389 57.6865 54.8959 57.5492 54.546 57.269C54.4238 57.1712 54.3161 57.0584 54.2249 56.9341C53.9314 56.5343 53.5325 56.1432 53.0365 56.1432H52.5477C52.0774 56.1432 51.6264 55.9564 51.2939 55.6238C50.9613 55.2913 50.7745 54.8403 50.7745 54.37ZM54.3209 59.5477C54.3209 59.0774 54.1341 58.6264 53.8015 58.2939C53.469 57.9613 53.018 57.7745 52.5477 57.7745C52.0774 57.7745 51.6264 57.9613 51.2939 58.2939C50.9613 58.6264 50.7745 59.0774 50.7745 59.5477V62.6543C50.7745 63.6331 51.5689 64.4275 52.5477 64.4275H55.6543C56.1246 64.4275 56.5756 64.2407 56.9081 63.9081C57.2407 63.5756 57.4275 63.1246 57.4275 62.6543C57.4275 62.184 57.2407 61.733 56.9081 61.4005C56.5756 61.0679 56.1246 60.8811 55.6543 60.8811H55.3209C54.7686 60.8811 54.3209 60.4334 54.3209 59.8811V59.5477Z" fill="white"/>
</g>
</g>
<defs>
<filter id="filter0_d_681_1221" x="0" y="0" width="94" height="94" filterUnits="userSpaceOnUse" color-interpolation-filters="sRGB">
<feFlood flood-opacity="0" result="BackgroundImageFix"/>
<feColorMatrix in="SourceAlpha" type="matrix" values="0 0 0 0 0 0 0 0 0 0 0 0 0 0 0 0 0 0 127 0" result="hardAlpha"/>
<feMorphology radius="1" operator="dilate" in="SourceAlpha" result="effect1_dropShadow_681_1221"/>
<feOffset dy="-7"/>
<feGaussianBlur stdDeviation="7.5"/>
<feComposite in2="hardAlpha" operator="out"/>
<feColorMatrix type="matrix" values="0 0 0 0 0 0 0 0 0 0 0 0 0 0 0 0 0 0 0.05 0"/>
<feBlend mode="normal" in2="BackgroundImageFix" result="effect1_dropShadow_681_1221"/>
<feBlend mode="normal" in="SourceGraphic" in2="effect1_dropShadow_681_1221" result="shape"/>
</filter>
<filter id="filter1_d_681_1221" x="27" y="34" width="40.7402" height="40.7422" filterUnits="userSpaceOnUse" color-interpolation-filters="sRGB">
<feFlood flood-opacity="0" result="BackgroundImageFix"/>
<feColorMatrix in="SourceAlpha" type="matrix" values="0 0 0 0 0 0 0 0 0 0 0 0 0 0 0 0 0 0 127 0" result="hardAlpha"/>
<feOffset/>
<feGaussianBlur stdDeviation="2"/>
<feComposite in2="hardAlpha" operator="out"/>
<feColorMatrix type="matrix" values="0 0 0 0 0 0 0 0 0 0 0 0 0 0 0 0 0 0 0.43 0"/>
<feBlend mode="normal" in2="BackgroundImageFix" result="effect1_dropShadow_681_1221"/>
<feBlend mode="normal" in="SourceGraphic" in2="effect1_dropShadow_681_1221" result="shape"/>
</filter>
</defs>
</svg>
