<svg width="25" height="25" viewBox="0 0 25 25" fill="none" xmlns="http://www.w3.org/2000/svg">
<path d="M12.5 2.34375C10.4913 2.34375 8.52768 2.9394 6.85749 4.05539C5.18731 5.17137 3.88556 6.75756 3.11685 8.61337C2.34815 10.4692 2.14702 12.5113 2.5389 14.4814C2.93079 16.4515 3.89807 18.2612 5.31845 19.6816C6.73883 21.1019 8.5485 22.0692 10.5186 22.4611C12.4887 22.853 14.5308 22.6519 16.3866 21.8832C18.2424 21.1144 19.8286 19.8127 20.9446 18.1425C22.0606 16.4723 22.6563 14.5087 22.6563 12.5C22.6534 9.80727 21.5825 7.22564 19.6784 5.32159C17.7744 3.41754 15.1927 2.34659 12.5 2.34375ZM12.5 18.75C12.2682 18.75 12.0417 18.6813 11.8489 18.5525C11.6562 18.4237 11.506 18.2407 11.4173 18.0266C11.3286 17.8124 11.3054 17.5768 11.3506 17.3495C11.3959 17.1222 11.5075 16.9134 11.6714 16.7495C11.8353 16.5856 12.0441 16.474 12.2714 16.4288C12.4987 16.3836 12.7343 16.4068 12.9485 16.4955C13.1626 16.5842 13.3456 16.7344 13.4744 16.9271C13.6031 17.1198 13.6719 17.3464 13.6719 17.5781C13.6719 17.8889 13.5484 18.187 13.3286 18.4068C13.1089 18.6265 12.8108 18.75 12.5 18.75ZM13.2813 13.9922V14.0625C13.2813 14.2697 13.1989 14.4684 13.0524 14.6149C12.9059 14.7614 12.7072 14.8438 12.5 14.8438C12.2928 14.8438 12.0941 14.7614 11.9476 14.6149C11.8011 14.4684 11.7188 14.2697 11.7188 14.0625V13.2812C11.7188 13.074 11.8011 12.8753 11.9476 12.7288C12.0941 12.5823 12.2928 12.5 12.5 12.5C13.792 12.5 14.8438 11.6211 14.8438 10.5469C14.8438 9.47266 13.792 8.59375 12.5 8.59375C11.208 8.59375 10.1563 9.47266 10.1563 10.5469V10.9375C10.1563 11.1447 10.0739 11.3434 9.92743 11.4899C9.78092 11.6364 9.5822 11.7188 9.375 11.7188C9.1678 11.7188 8.96909 11.6364 8.82258 11.4899C8.67606 11.3434 8.59375 11.1447 8.59375 10.9375V10.5469C8.59375 8.6084 10.3457 7.03125 12.5 7.03125C14.6543 7.03125 16.4063 8.6084 16.4063 10.5469C16.4063 12.2441 15.0625 13.665 13.2813 13.9922Z" fill="#01AED6"/>
</svg>
