<?xml version="1.0" encoding="UTF-8"?>
<svg version="1.1" xmlns="http://www.w3.org/2000/svg" width="1284" height="2778">
<path d="M0 0 C423.72 0 847.44 0 1284 0 C1284 916.74 1284 1833.48 1284 2778 C860.28 2778 436.56 2778 0 2778 C0 1861.26 0 944.52 0 0 Z " fill="#59B1F8" transform="translate(0,0)"/>
<path d="M0 0 C1.37892246 -0.01038696 1.37892246 -0.01038696 2.78570193 -0.02098376 C3.80231176 -0.02352787 4.81892159 -0.02607199 5.86633778 -0.0286932 C6.94116549 -0.03519215 8.0159932 -0.0416911 9.12339145 -0.04838699 C12.74919127 -0.06887543 16.37497979 -0.08202877 20.00081348 -0.09508419 C22.59070462 -0.10789005 25.18059415 -0.12102539 27.77048206 -0.13446712 C36.29685381 -0.17695463 44.82325726 -0.20653669 53.34969044 -0.23351192 C54.07453303 -0.23581951 54.79937562 -0.23812709 55.54618314 -0.24050459 C69.93611006 -0.28594208 84.32605217 -0.32446832 98.71602631 -0.35123444 C101.88061702 -0.35722366 105.04520753 -0.36330929 108.20979786 -0.36949825 C108.99635298 -0.37103123 109.78290811 -0.37256422 110.59329823 -0.37414365 C123.33413269 -0.39985541 136.07463646 -0.45673416 148.81530084 -0.52596355 C161.89302618 -0.59643795 174.97058053 -0.63666908 188.04849273 -0.64798397 C195.39250578 -0.65514467 202.73594432 -0.67590837 210.07976818 -0.73101139 C216.98855274 -0.78281319 223.8963676 -0.79407761 230.8053236 -0.77776051 C233.34220499 -0.77836537 235.87912551 -0.79269803 238.4158411 -0.82170773 C241.87828816 -0.85923634 245.33720044 -0.84748864 248.79968739 -0.82337093 C249.80514361 -0.84599155 250.81059983 -0.86861216 251.84652442 -0.89191824 C255.8693542 -0.82052855 258.56521458 -0.72584104 261.76917136 1.84626877 C263.57034911 3.8683464 265.12763023 5.90821403 266.65047169 8.14539433 C267.17668714 8.86827135 267.70290259 9.59114838 268.24506396 10.33593076 C269.72815877 12.38459227 271.13336967 14.47141849 272.52547169 16.58289433 C273.03940479 17.36148808 273.5533379 18.14008183 274.08284473 18.94226933 C285.73702011 36.87344113 293.42971374 55.26456623 298.52547169 76.02039433 C298.82405079 77.23243534 299.12262989 78.44447636 299.43025684 79.69324589 C308.12150208 116.73872851 301.3603871 156.38251824 284.65047169 190.14539433 C284.182542 191.11992558 283.71461231 192.09445683 283.23250294 193.09851933 C276.20224896 206.87039515 266.42074346 219.14199979 255.65047169 230.14539433 C254.32595997 231.5453162 254.32595997 231.5453162 252.97469044 232.97351933 C237.33098986 249.18320038 210.83471166 269.46487567 187.50710964 271.40710735 C186.37699144 271.41263811 185.24687325 271.41816887 184.08250904 271.42386723 C182.12646748 271.44061245 182.12646748 271.44061245 180.13090992 271.45769596 C178.69814043 271.46006056 177.26537063 271.46223627 175.83260059 271.46424198 C174.3144881 271.47354633 172.7963807 271.48371575 171.2782793 271.49468327 C167.16720625 271.52194029 163.05616739 271.53711991 158.94502783 271.55011129 C154.64484749 271.56576066 150.34473677 271.59254513 146.04460621 271.61814213 C137.90624296 271.66489795 129.76786657 271.70165753 121.6294378 271.734815 C112.36220097 271.77305898 103.09503411 271.82246318 93.8278563 271.87279916 C74.76877933 271.97607147 55.70965964 272.06534715 36.65047169 272.14539433 C36.00985292 273.56678442 35.37138772 274.98914523 34.73381519 276.41190434 C34.37803583 277.20387526 34.02225647 277.99584618 33.65569592 278.81181622 C32.27470258 282.01772363 31.18889943 285.2821751 30.12703419 288.60633183 C29.79334576 289.64302509 29.79334576 289.64302509 29.45291615 290.70066166 C28.97350956 292.19207316 28.49636143 293.68421222 28.02129078 295.17701054 C27.25451437 297.58624279 26.48170422 299.99346834 25.70735645 302.40027714 C24.59597089 305.85544232 23.48661644 309.31125001 22.37849903 312.76746464 C18.03291087 326.3070066 13.61669982 339.82389731 9.19769764 353.33962345 C7.52468564 358.45860199 5.86220507 363.58082906 4.208745 368.70615482 C3.20343443 371.81561062 2.18951631 374.92220842 1.17320728 378.02808475 C0.70387678 379.46852387 0.23821029 380.91016254 -0.22358227 382.35303593 C-0.85355708 384.31968192 -1.49631976 386.28167957 -2.14249706 388.24305058 C-2.49852001 389.34141239 -2.85454296 390.43977421 -3.22135448 391.57141972 C-4.34952831 394.14539433 -4.34952831 394.14539433 -7.34952831 396.14539433 C-9.55593491 396.39707661 -9.55593491 396.39707661 -12.17656994 396.39936161 C-13.17067379 396.40500126 -14.16477764 396.41064091 -15.18900585 396.41645145 C-16.82319469 396.41037876 -16.82319469 396.41037876 -18.49039745 396.40418339 C-19.63854427 396.40768803 -20.78669109 396.41119267 -21.96963024 396.4148035 C-25.77470937 396.423625 -29.57960345 396.41777046 -33.38468456 396.41101933 C-36.02119514 396.41236576 -38.65770548 396.41430611 -41.2942152 396.41681767 C-46.82317146 396.42045677 -52.3520743 396.41565916 -57.88102245 396.40613651 C-64.27775603 396.39524666 -70.67436217 396.39878156 -77.07109267 396.40978932 C-83.22044988 396.41994869 -89.36975048 396.41888657 -95.51911259 396.41302586 C-98.13829027 396.41168793 -100.75747118 396.41334203 -103.37664509 396.41798496 C-107.03053678 396.42304058 -110.68418057 396.41535363 -114.3380537 396.40418339 C-115.42953716 396.40823185 -116.52102062 396.41228031 -117.64557934 396.41645145 C-118.63686337 396.41081181 -119.62814739 396.40517216 -120.64947033 396.39936161 C-121.51390286 396.39860756 -122.3783354 396.39785351 -123.26896286 396.39707661 C-125.34952831 396.14539433 -125.34952831 396.14539433 -127.34952831 394.14539433 C-125.23001939 359.56008628 -106.42743812 320.29433673 -90.34952831 290.14539433 C-89.98037304 289.44043827 -89.61121777 288.73548222 -89.23087597 288.00916386 C-80.42871864 271.25761538 -69.82195509 256.34568915 -57.34952831 242.14539433 C-56.72562206 241.39902714 -56.10171581 240.65265995 -55.45890331 239.88367558 C-42.14379223 224.04864861 -24.60255057 212.49161776 -6.34952831 203.14539433 C-5.73851269 202.82764042 -5.12749706 202.50988651 -4.49796581 202.1825037 C11.10241651 194.15495271 28.10776297 188.72014671 44.83797169 183.58289433 C45.64452198 183.33144657 46.45107227 183.07999882 47.28206348 182.82093143 C51.52901509 181.55886349 55.16809009 180.8665859 59.65047169 181.14539433 C60.7338686 185.21883501 60.48514301 188.20787532 59.65437794 192.32117558 C59.42556934 193.47810917 59.19676075 194.63504276 58.96101856 195.82703495 C58.71416309 197.02521854 58.46730762 198.22340214 58.21297169 199.45789433 C57.96998341 200.67541386 57.72699512 201.89293339 57.47664356 203.14734745 C56.87641018 206.14851438 56.26740776 209.14762424 55.65047169 212.14539433 C54.99047169 212.14539433 54.33047169 212.14539433 53.65047169 212.14539433 C53.98047169 214.78539433 54.31047169 217.42539433 54.65047169 220.14539433 C61.0574522 221.07996198 64.96840007 217.88000852 70.08797169 214.52039433 C71.96483534 213.32261859 73.84246747 212.12604636 75.72078419 210.93055058 C76.69305958 210.30680546 77.66533497 209.68306034 78.66707325 209.04041386 C83.55294703 205.93696441 88.50937381 202.95157789 93.46297169 199.95789433 C101.99714585 194.77859236 110.4804523 189.52477627 118.93611622 184.21863651 C125.61462985 180.03767013 132.34214264 175.93652633 139.08015919 171.85242558 C149.69339702 165.41608917 160.26693943 158.94777768 170.65047169 152.14539433 C170.18238618 146.55437301 168.02968221 143.01876731 165.02547169 138.45789433 C164.34496754 137.39852665 164.34496754 137.39852665 163.65071583 136.31775761 C162.74047818 134.90204721 161.82624676 133.48889567 160.90779591 132.07849979 C159.2784455 129.57341309 157.68357337 127.04707652 156.08797169 124.52039433 C153.92493389 121.12995833 151.75036662 117.74709803 149.57185841 114.36658573 C145.15870679 107.51658158 140.79437256 100.63700704 136.44905567 93.743783 C131.90549513 86.53939222 127.32944994 79.35593614 122.75056934 72.17395878 C118.65420894 65.74165258 114.59479671 59.28742213 110.58162403 52.80286503 C108.82842945 49.8133841 108.82842945 49.8133841 106.65047169 47.14539433 C104.98430054 47.104756 103.31659074 47.10267332 101.65047169 47.14539433 C101.28695606 48.05418339 101.28695606 48.05418339 100.91609669 48.98133183 C100.2117143 50.7422878 99.50588427 52.50266514 98.79890919 54.26258183 C98.04328806 56.15934506 97.29818097 58.0603364 96.56453419 59.96570683 C96.05019825 61.29215214 96.05019825 61.29215214 95.52547169 62.64539433 C95.057542 63.86742558 95.057542 63.86742558 94.58015919 65.11414433 C93.65047169 67.14539433 93.65047169 67.14539433 91.65047169 69.14539433 C89.19344044 69.67273808 89.19344044 69.67273808 85.83797169 70.08289433 C85.20053028 70.16297733 84.56308887 70.24306034 83.90633106 70.32557011 C79.28237953 70.88728992 74.64967009 71.34690577 70.01375294 71.79773808 C47.28172476 74.01467426 25.43318998 77.10188063 3.65047169 84.14539433 C2.93842579 84.37452518 2.22637989 84.60365604 1.49275684 84.83973026 C-11.05000724 88.97365251 -23.35291479 94.81431864 -34.34952831 102.14539433 C-36.53702831 101.77039433 -36.53702831 101.77039433 -38.34952831 101.14539433 C-39.76362454 96.5415747 -38.8130627 93.72854262 -37.17374706 89.27430058 C-36.93327648 88.6086005 -36.6928059 87.94290043 -36.44504833 87.25702763 C-35.92501631 85.82104284 -35.39947777 84.38704268 -34.86902905 82.95487309 C-33.44750423 79.11577062 -32.06592867 75.26224062 -30.67765331 71.41101933 C-30.39417538 70.62834187 -30.11069744 69.84566441 -29.81862926 69.03926945 C-27.17504081 61.72129 -24.71383595 54.35071989 -22.28702831 46.95789433 C-18.96935548 36.92174816 -15.58751092 26.9110348 -12.08686352 16.93723392 C-11.59821321 15.54263593 -11.11207677 14.14715437 -10.62855053 12.75077152 C-9.95949311 10.82117791 -9.27977509 8.89529053 -8.59952831 6.96961308 C-8.21280956 5.86706181 -7.82609081 4.76451054 -7.42765331 3.62854862 C-5.75468112 -0.224667 -3.8768492 0.01923734 0 0 Z " fill="#FDFEFE" transform="translate(555.3495283126831,1190.8546056747437)"/>
<path d="M0 0 C0.33 0 0.66 0 1 0 C1 3.96 1 7.92 1 12 C39.61 12 78.22 12 118 12 C118 12.33 118 12.66 118 13 C102.64926917 13.04667745 87.29854162 13.08196793 71.94775581 13.10362434 C64.82045243 13.11394612 57.69319309 13.12802361 50.56591797 13.15087891 C43.69301814 13.17290803 36.82016419 13.18455525 29.94723129 13.18975449 C27.31967319 13.19346163 24.6921177 13.20070029 22.06457901 13.21146011 C18.39602403 13.225891 14.72766064 13.22798147 11.05908203 13.22705078 C9.41478714 13.23783661 9.41478714 13.23783661 7.73727417 13.24884033 C6.24384491 13.24471634 6.24384491 13.24471634 4.72024536 13.24050903 C3.41775187 13.24327441 3.41775187 13.24327441 2.08894539 13.24609566 C0 13 0 13 -2 11 C-1.7578125 8.3984375 -1.7578125 8.3984375 -1.125 5.375 C-0.92132813 4.37210938 -0.71765625 3.36921875 -0.5078125 2.3359375 C-0.34023438 1.56507812 -0.17265625 0.79421875 0 0 Z " fill="#D9FEFE" transform="translate(430,1574)"/>
<path d="M0 0 C0 0.99 0 1.98 0 3 C-0.66 3 -1.32 3 -2 3 C-2.061875 3.556875 -2.12375 4.11375 -2.1875 4.6875 C-3.74300875 9.11471722 -7.71180971 11.78874169 -11.25 14.6875 C-14.01742194 16.7042322 -14.01742194 16.7042322 -15 19 C-15.66 18.67 -16.32 18.34 -17 18 C-11.99719692 11.07171944 -6.62434063 5.39190517 0 0 Z " fill="#D7FBFE" transform="translate(510,1421)"/>
<path d="M0 0 C1.73728284 6.02526772 -0.25414874 12.62053078 -3.09375 18.1171875 C-4.1875 19.75 -4.1875 19.75 -6 22 C-7 20 -7 20 -6.47094727 17.93701172 C-6.17244873 17.10959473 -5.8739502 16.28217773 -5.56640625 15.4296875 C-5.24736328 14.53378906 -4.92832031 13.63789062 -4.59960938 12.71484375 C-4.25736328 11.77769531 -3.91511719 10.84054687 -3.5625 9.875 C-3.22412109 8.93011719 -2.88574219 7.98523437 -2.53710938 7.01171875 C-1.6981094 4.67197234 -0.85215708 2.33497991 0 0 Z " fill="#C7F9FE" transform="translate(533,1238)"/>
<path d="M0 0 C0.66 0.33 1.32 0.66 2 1 C-0.02041177 4.03061766 -0.75685563 4.72239767 -4 6 C-4.99 6 -5.98 6 -7 6 C-7 6.66 -7 7.32 -7 8 C-8.98 8.33 -10.96 8.66 -13 9 C-10.59497637 6.36479259 -7.9814151 4.59697057 -4.9375 2.75 C-4.05964844 2.20859375 -3.18179688 1.6671875 -2.27734375 1.109375 C-1.52582031 0.74328125 -0.77429688 0.3771875 0 0 Z " fill="#D1FBFE" transform="translate(692,1364)"/>
<path d="M0 0 C0 0.66 0 1.32 0 2 C-0.99 2 -1.98 2 -3 2 C-3.268125 2.598125 -3.53625 3.19625 -3.8125 3.8125 C-4.98493467 5.97224808 -6.19369282 7.35790256 -8 9 C-8 8.01 -8 7.02 -8 6 C-8.66 5.67 -9.32 5.34 -10 5 C-8.71186658 4.16121545 -7.41936744 3.32913217 -6.125 2.5 C-5.40570312 2.0359375 -4.68640625 1.571875 -3.9453125 1.09375 C-2 0 -2 0 0 0 Z " fill="#DAFAFE" transform="translate(678,1374)"/>
<path d="M0 0 C3.65882521 3.3621637 6.14420341 6.36050852 8 11 C7.67 11.66 7.34 12.32 7 13 C5.82786955 11.21190303 4.66244474 9.41940875 3.5 7.625 C2.8503125 6.62726563 2.200625 5.62953125 1.53125 4.6015625 C0 2 0 2 0 0 Z " fill="#CCFAFE" transform="translate(708,1308)"/>
<path d="M0 0 C0.66 0.33 1.32 0.66 2 1 C1.34 2.32 0.68 3.64 0 5 C-1.32 4.67 -2.64 4.34 -4 4 C-4 4.66 -4 5.32 -4 6 C-5.32 5.67 -6.64 5.34 -8 5 C-6.71475739 4.13619741 -5.42157581 3.28419631 -4.125 2.4375 C-3.04605469 1.72400391 -3.04605469 1.72400391 -1.9453125 0.99609375 C-1.30335938 0.66738281 -0.66140625 0.33867188 0 0 Z " fill="#DAFBFE" transform="translate(640,1396)"/>
<path d="M0 0 C0.95465783 2.16967689 1.14401212 3.56328793 0.3984375 5.82421875 C-0.35870385 7.5684743 -1.17609198 9.28627131 -2 11 C-2.66 11 -3.32 11 -4 11 C-3.52269162 9.5410574 -3.04308958 8.08286504 -2.5625 6.625 C-2.29566406 5.81289062 -2.02882813 5.00078125 -1.75390625 4.1640625 C-1 2 -1 2 0 0 Z " fill="#D0FBFE" transform="translate(461,1488)"/>
<path d="M0 0 C0.66 0.33 1.32 0.66 2 1 C0.625 2.5 0.625 2.5 -1 4 C-1.66 4 -2.32 4 -3 4 C-3 4.66 -3 5.32 -3 6 C-4.65 6 -6.3 6 -8 6 C-5.63404067 3.38499232 -3.13950774 1.61000397 0 0 Z " fill="#D9FAFE" transform="translate(650,1390)"/>
<path d="M0 0 C0 0.66 0 1.32 0 2 C-3.2491277 4.3208055 -6.05879291 5.43697042 -10 6 C-7.35570758 3.077361 -4.105808 0 0 0 Z " fill="#D9FDFE" transform="translate(540,1400)"/>
</svg>
