<svg width="33" height="29" viewBox="0 0 33 29" fill="none" xmlns="http://www.w3.org/2000/svg">
<path d="M29.5938 5.25H3.96875C3.62894 5.25 3.30305 5.11501 3.06277 4.87473C2.82249 4.63445 2.6875 4.30856 2.6875 3.96875C2.6875 3.62894 2.82249 3.30305 3.06277 3.06277C3.30305 2.82249 3.62894 2.6875 3.96875 2.6875H25.75C26.0898 2.6875 26.4157 2.55251 26.656 2.31223C26.8963 2.07195 27.0312 1.74606 27.0312 1.40625C27.0312 1.06644 26.8963 0.740551 26.656 0.50027C26.4157 0.259989 26.0898 0.125 25.75 0.125H3.96875C2.94932 0.125 1.97165 0.529965 1.25081 1.25081C0.529965 1.97165 0.125 2.94932 0.125 3.96875V24.4688C0.125 25.4882 0.529965 26.4658 1.25081 27.1867C1.97165 27.9075 2.94932 28.3125 3.96875 28.3125H29.5938C30.2734 28.3125 30.9251 28.0425 31.4057 27.562C31.8863 27.0814 32.1562 26.4296 32.1562 25.75V7.8125C32.1562 7.13288 31.8863 6.4811 31.4057 6.00054C30.9251 5.51998 30.2734 5.25 29.5938 5.25ZM23.8281 18.0625C23.448 18.0625 23.0764 17.9498 22.7604 17.7386C22.4443 17.5274 22.198 17.2273 22.0525 16.8761C21.9071 16.5249 21.869 16.1385 21.9432 15.7657C22.0173 15.3929 22.2004 15.0504 22.4692 14.7817C22.7379 14.5129 23.0804 14.3298 23.4532 14.2557C23.826 14.1815 24.2124 14.2196 24.5636 14.365C24.9148 14.5105 25.2149 14.7568 25.4261 15.0729C25.6373 15.3889 25.75 15.7605 25.75 16.1406C25.75 16.6503 25.5475 17.1392 25.1871 17.4996C24.8267 17.86 24.3378 18.0625 23.8281 18.0625Z" fill="#01AED6"/>
</svg>
